# xmcd CD database file
#
# Track frame offsets:
#	182
#	22262
#	44140
#	65607
#	85630
#	105097
#	127637
#	150652
#	175137
#	193380
#
# Disc length: 2806 seconds
#
# Revision: 0
# Processed by: cddbd v1.4PL0 Copyright (c) Steve Scherf et al.
# Submitted via: CDex 1.50Beta7
#
DISCID=7e0af40a
DTITLE=Akira Jimbo - Slow Boat
DYEAR=1991
DGENRE=Jazz
TTITLE0=Roll Over 90's
TTITLE1=The Summer's End
TTITLE2=Get Down To The Wire
TTITLE3=Mosaic
TTITLE4=Sincerity
TTITLE5=Rain And Shine
TTITLE6=Dreams of Rio
TTITLE7=Playin' Together Again
TTITLE8=Parisian Nights
TTITLE9=Irish Field
EXTD=YEAR: 1991
EXTT0=
EXTT1=
EXTT2=
EXTT3=
EXTT4=
EXTT5=
EXTT6=
EXTT7=
EXTT8=
EXTT9=
PLAYORDER=
